<mxfile host="app.diagrams.net" modified="2023-04-12T23:53:51.140Z" agent="Mozilla/5.0 (Windows NT 10.0; Win64; x64) AppleWebKit/537.36 (KHTML, like Gecko) Chrome/112.0.0.0 Safari/537.36" etag="ncJiExcFqeidTX20QVod" version="21.1.5" type="onedrive">
  <diagram id="8yJ20efT0MQqGpZS2KE4" name="Página-1">
    <mxGraphModel grid="0" page="1" gridSize="10" guides="0" tooltips="1" connect="1" arrows="1" fold="1" pageScale="1" pageWidth="1100" pageHeight="850" math="0" shadow="0">
      <root>
        <mxCell id="0" />
        <mxCell id="1" parent="0" />
        <mxCell id="O_ht2-A330m9u8vxiIqC-9" value="PERSONA" style="swimlane;childLayout=stackLayout;horizontal=1;startSize=30;horizontalStack=0;rounded=1;fontSize=14;fontStyle=0;strokeWidth=2;resizeParent=0;resizeLast=1;shadow=0;dashed=0;align=center;" vertex="1" parent="1">
          <mxGeometry x="-311" y="-813" width="170" height="120" as="geometry" />
        </mxCell>
        <mxCell id="O_ht2-A330m9u8vxiIqC-10" value="+NRO_DOCUMENTO&#xa;+VACUNAS&#xa;+RESULTADO_PCR&#xa;+FECHA_RESULTADO_PCR&#xa;" style="align=left;strokeColor=none;fillColor=none;spacingLeft=4;fontSize=12;verticalAlign=top;resizable=0;rotatable=0;part=1;" vertex="1" parent="O_ht2-A330m9u8vxiIqC-9">
          <mxGeometry y="30" width="170" height="90" as="geometry" />
        </mxCell>
        <mxCell id="O_ht2-A330m9u8vxiIqC-52" style="edgeStyle=orthogonalEdgeStyle;rounded=0;orthogonalLoop=1;jettySize=auto;html=1;entryX=0.5;entryY=1;entryDx=0;entryDy=0;" edge="1" parent="1" source="O_ht2-A330m9u8vxiIqC-11" target="O_ht2-A330m9u8vxiIqC-10">
          <mxGeometry relative="1" as="geometry" />
        </mxCell>
        <mxCell id="O_ht2-A330m9u8vxiIqC-11" value="INVITADO" style="swimlane;childLayout=stackLayout;horizontal=1;startSize=30;horizontalStack=0;rounded=1;fontSize=14;fontStyle=0;strokeWidth=2;resizeParent=0;resizeLast=1;shadow=0;dashed=0;align=center;" vertex="1" parent="1">
          <mxGeometry x="-435" y="-587" width="230" height="160" as="geometry" />
        </mxCell>
        <mxCell id="O_ht2-A330m9u8vxiIqC-12" value="+CONFIRMO_ASISTENCIA&#xa;+FALTO&#xa;+TIPO?&#xa;+NRO_MESA&#xa;+NRO_MENU&#xa;+COSTO_FACTURA" style="align=left;strokeColor=none;fillColor=none;spacingLeft=4;fontSize=12;verticalAlign=top;resizable=0;rotatable=0;part=1;" vertex="1" parent="O_ht2-A330m9u8vxiIqC-11">
          <mxGeometry y="30" width="230" height="130" as="geometry" />
        </mxCell>
        <mxCell id="O_ht2-A330m9u8vxiIqC-53" style="edgeStyle=orthogonalEdgeStyle;rounded=0;orthogonalLoop=1;jettySize=auto;html=1;entryX=0.5;entryY=1;entryDx=0;entryDy=0;exitX=0.5;exitY=0;exitDx=0;exitDy=0;" edge="1" parent="1" source="O_ht2-A330m9u8vxiIqC-15" target="O_ht2-A330m9u8vxiIqC-10">
          <mxGeometry relative="1" as="geometry">
            <Array as="points">
              <mxPoint x="-105" y="-641" />
              <mxPoint x="-226" y="-641" />
            </Array>
          </mxGeometry>
        </mxCell>
        <mxCell id="O_ht2-A330m9u8vxiIqC-15" value="CONTRATADO   " style="swimlane;childLayout=stackLayout;horizontal=1;startSize=30;horizontalStack=0;rounded=1;fontSize=14;fontStyle=0;strokeWidth=2;resizeParent=0;resizeLast=1;shadow=0;dashed=0;align=center;" vertex="1" parent="1">
          <mxGeometry x="-185" y="-587" width="160" height="120" as="geometry" />
        </mxCell>
        <mxCell id="O_ht2-A330m9u8vxiIqC-16" value="+ROL/TAREA&#xa;+NRO_SERVICIO" style="align=left;strokeColor=none;fillColor=none;spacingLeft=4;fontSize=12;verticalAlign=top;resizable=0;rotatable=0;part=1;" vertex="1" parent="O_ht2-A330m9u8vxiIqC-15">
          <mxGeometry y="30" width="160" height="90" as="geometry" />
        </mxCell>
        <mxCell id="O_ht2-A330m9u8vxiIqC-18" value="FOTOGRAFO" style="swimlane;childLayout=stackLayout;horizontal=1;startSize=30;horizontalStack=0;rounded=1;fontSize=14;fontStyle=0;strokeWidth=2;resizeParent=0;resizeLast=1;shadow=0;dashed=0;align=center;" vertex="1" parent="1">
          <mxGeometry x="-142" y="-134" width="121" height="80" as="geometry" />
        </mxCell>
        <mxCell id="O_ht2-A330m9u8vxiIqC-19" value="+CALIDAD" style="align=left;strokeColor=none;fillColor=none;spacingLeft=4;fontSize=12;verticalAlign=top;resizable=0;rotatable=0;part=1;" vertex="1" parent="O_ht2-A330m9u8vxiIqC-18">
          <mxGeometry y="30" width="121" height="50" as="geometry" />
        </mxCell>
        <mxCell id="O_ht2-A330m9u8vxiIqC-20" value="MESA" style="swimlane;childLayout=stackLayout;horizontal=1;startSize=30;horizontalStack=0;rounded=1;fontSize=14;fontStyle=0;strokeWidth=2;resizeParent=0;resizeLast=1;shadow=0;dashed=0;align=center;" vertex="1" parent="1">
          <mxGeometry x="-601" y="-826" width="160" height="120" as="geometry" />
        </mxCell>
        <mxCell id="O_ht2-A330m9u8vxiIqC-21" value="+ASIENTOS_TOTALES&#xa;+&#xa;" style="align=left;strokeColor=none;fillColor=none;spacingLeft=4;fontSize=12;verticalAlign=top;resizable=0;rotatable=0;part=1;" vertex="1" parent="O_ht2-A330m9u8vxiIqC-20">
          <mxGeometry y="30" width="160" height="90" as="geometry" />
        </mxCell>
        <mxCell id="O_ht2-A330m9u8vxiIqC-22" value="PRODUCTO" style="swimlane;childLayout=stackLayout;horizontal=1;startSize=30;horizontalStack=0;rounded=1;fontSize=14;fontStyle=0;strokeWidth=2;resizeParent=0;resizeLast=1;shadow=0;dashed=0;align=center;" vertex="1" parent="1">
          <mxGeometry x="-482" y="-189" width="210" height="150" as="geometry" />
        </mxCell>
        <mxCell id="O_ht2-A330m9u8vxiIqC-23" value="+COD_PRODUCTO&#xa;+COSTO&#xa;+NOMBRE&#xa;+TIPO&#xa;+CANT_CONTRAINDICACIONES&#xa;+CANT_COMPRADA&#xa;+CANT_ACTUAL" style="align=left;strokeColor=none;fillColor=none;spacingLeft=4;fontSize=12;verticalAlign=top;resizable=0;rotatable=0;part=1;" vertex="1" parent="O_ht2-A330m9u8vxiIqC-22">
          <mxGeometry y="30" width="210" height="120" as="geometry" />
        </mxCell>
        <mxCell id="O_ht2-A330m9u8vxiIqC-24" value="BEBIDA" style="swimlane;childLayout=stackLayout;horizontal=1;startSize=30;horizontalStack=0;rounded=1;fontSize=14;fontStyle=0;strokeWidth=2;resizeParent=0;resizeLast=1;shadow=0;dashed=0;align=center;" vertex="1" parent="1">
          <mxGeometry x="-351" y="-352" width="160" height="120" as="geometry" />
        </mxCell>
        <mxCell id="O_ht2-A330m9u8vxiIqC-25" value="+TIPO&#xa;&#xa;" style="align=left;strokeColor=none;fillColor=none;spacingLeft=4;fontSize=12;verticalAlign=top;resizable=0;rotatable=0;part=1;" vertex="1" parent="O_ht2-A330m9u8vxiIqC-24">
          <mxGeometry y="30" width="160" height="90" as="geometry" />
        </mxCell>
        <mxCell id="O_ht2-A330m9u8vxiIqC-28" value="PLATO" style="swimlane;childLayout=stackLayout;horizontal=1;startSize=30;horizontalStack=0;rounded=1;fontSize=14;fontStyle=0;strokeWidth=2;resizeParent=0;resizeLast=1;shadow=0;dashed=0;align=center;" vertex="1" parent="1">
          <mxGeometry x="-961" y="-824" width="200" height="120" as="geometry" />
        </mxCell>
        <mxCell id="O_ht2-A330m9u8vxiIqC-29" value="+INGREDIENTES&#xa;+NOMBRE&#xa;+CONTRAINDICACIONES&#xa;+CODIGO&#xa;+COSTO" style="align=left;strokeColor=none;fillColor=none;spacingLeft=4;fontSize=12;verticalAlign=top;resizable=0;rotatable=0;part=1;" vertex="1" parent="O_ht2-A330m9u8vxiIqC-28">
          <mxGeometry y="30" width="200" height="90" as="geometry" />
        </mxCell>
        <mxCell id="O_ht2-A330m9u8vxiIqC-30" value="INVITADO_PIDE_BEBIDA" style="swimlane;childLayout=stackLayout;horizontal=1;startSize=30;horizontalStack=0;rounded=1;fontSize=14;fontStyle=0;strokeWidth=2;resizeParent=0;resizeLast=1;shadow=0;dashed=0;align=center;" vertex="1" parent="1">
          <mxGeometry x="-758" y="-186" width="200" height="120" as="geometry" />
        </mxCell>
        <mxCell id="O_ht2-A330m9u8vxiIqC-31" value="+NRO_DOCUMENTO_INVITADO&#xa;+COD_BEBIDA&#xa;+CANTIDAD" style="align=left;strokeColor=none;fillColor=none;spacingLeft=4;fontSize=12;verticalAlign=top;resizable=0;rotatable=0;part=1;" vertex="1" parent="O_ht2-A330m9u8vxiIqC-30">
          <mxGeometry y="30" width="200" height="90" as="geometry" />
        </mxCell>
        <mxCell id="O_ht2-A330m9u8vxiIqC-46" style="edgeStyle=orthogonalEdgeStyle;rounded=0;orthogonalLoop=1;jettySize=auto;html=1;exitX=0.5;exitY=0;exitDx=0;exitDy=0;entryX=0.5;entryY=1;entryDx=0;entryDy=0;" edge="1" parent="1" source="O_ht2-A330m9u8vxiIqC-32" target="O_ht2-A330m9u8vxiIqC-29">
          <mxGeometry relative="1" as="geometry">
            <mxPoint x="-1018" y="-738" as="targetPoint" />
          </mxGeometry>
        </mxCell>
        <mxCell id="O_ht2-A330m9u8vxiIqC-32" value="ENTRADA" style="swimlane;childLayout=stackLayout;horizontal=1;startSize=30;horizontalStack=0;rounded=1;fontSize=14;fontStyle=0;strokeWidth=2;resizeParent=0;resizeLast=1;shadow=0;dashed=0;align=center;" vertex="1" parent="1">
          <mxGeometry x="-1085" y="-652" width="113" height="120" as="geometry" />
        </mxCell>
        <mxCell id="O_ht2-A330m9u8vxiIqC-33" value="+" style="align=left;strokeColor=none;fillColor=none;spacingLeft=4;fontSize=12;verticalAlign=top;resizable=0;rotatable=0;part=1;" vertex="1" parent="O_ht2-A330m9u8vxiIqC-32">
          <mxGeometry y="30" width="113" height="90" as="geometry" />
        </mxCell>
        <mxCell id="O_ht2-A330m9u8vxiIqC-48" style="edgeStyle=orthogonalEdgeStyle;rounded=0;orthogonalLoop=1;jettySize=auto;html=1;entryX=0.5;entryY=1;entryDx=0;entryDy=0;" edge="1" parent="1" source="O_ht2-A330m9u8vxiIqC-34" target="O_ht2-A330m9u8vxiIqC-29">
          <mxGeometry relative="1" as="geometry">
            <mxPoint x="-675" y="-710" as="targetPoint" />
            <Array as="points">
              <mxPoint x="-889" y="-681" />
              <mxPoint x="-861" y="-681" />
            </Array>
          </mxGeometry>
        </mxCell>
        <mxCell id="O_ht2-A330m9u8vxiIqC-34" value="PLATO_PRINCIPAL" style="swimlane;childLayout=stackLayout;horizontal=1;startSize=30;horizontalStack=0;rounded=1;fontSize=14;fontStyle=0;strokeWidth=2;resizeParent=0;resizeLast=1;shadow=0;dashed=0;align=center;" vertex="1" parent="1">
          <mxGeometry x="-951" y="-653" width="132" height="120" as="geometry" />
        </mxCell>
        <mxCell id="O_ht2-A330m9u8vxiIqC-35" value="+" style="align=left;strokeColor=none;fillColor=none;spacingLeft=4;fontSize=12;verticalAlign=top;resizable=0;rotatable=0;part=1;" vertex="1" parent="O_ht2-A330m9u8vxiIqC-34">
          <mxGeometry y="30" width="132" height="90" as="geometry" />
        </mxCell>
        <mxCell id="O_ht2-A330m9u8vxiIqC-36" value="POSTRE" style="swimlane;childLayout=stackLayout;horizontal=1;startSize=30;horizontalStack=0;rounded=1;fontSize=14;fontStyle=0;strokeWidth=2;resizeParent=0;resizeLast=1;shadow=0;dashed=0;align=center;" vertex="1" parent="1">
          <mxGeometry x="-765" y="-655" width="86" height="120" as="geometry" />
        </mxCell>
        <mxCell id="O_ht2-A330m9u8vxiIqC-37" value="+" style="align=left;strokeColor=none;fillColor=none;spacingLeft=4;fontSize=12;verticalAlign=top;resizable=0;rotatable=0;part=1;" vertex="1" parent="O_ht2-A330m9u8vxiIqC-36">
          <mxGeometry y="30" width="86" height="90" as="geometry" />
        </mxCell>
        <mxCell id="O_ht2-A330m9u8vxiIqC-39" value="MENU" style="swimlane;childLayout=stackLayout;horizontal=1;startSize=30;horizontalStack=0;rounded=1;fontSize=14;fontStyle=0;strokeWidth=2;resizeParent=0;resizeLast=1;shadow=0;dashed=0;align=center;" vertex="1" parent="1">
          <mxGeometry x="-966" y="-373" width="160" height="120" as="geometry" />
        </mxCell>
        <mxCell id="O_ht2-A330m9u8vxiIqC-40" value="+NRO_MENU&#xa;+COD_ENTRADA&#xa;+COD_PLATO_PRINCIPAL&#xa;+COD_POSTRE&#xa;+INDICACIONES" style="align=left;strokeColor=none;fillColor=none;spacingLeft=4;fontSize=12;verticalAlign=top;resizable=0;rotatable=0;part=1;" vertex="1" parent="O_ht2-A330m9u8vxiIqC-39">
          <mxGeometry y="30" width="160" height="90" as="geometry" />
        </mxCell>
        <mxCell id="O_ht2-A330m9u8vxiIqC-42" value="SERVICIOS" style="swimlane;childLayout=stackLayout;horizontal=1;startSize=30;horizontalStack=0;rounded=1;fontSize=14;fontStyle=0;strokeWidth=2;resizeParent=0;resizeLast=1;shadow=0;dashed=0;align=center;" vertex="1" parent="1">
          <mxGeometry x="-185" y="-315" width="160" height="120" as="geometry" />
        </mxCell>
        <mxCell id="O_ht2-A330m9u8vxiIqC-43" value="+NRO_SERVICIO&#xa;+NOMBRE&#xa;+COSTO" style="align=left;strokeColor=none;fillColor=none;spacingLeft=4;fontSize=12;verticalAlign=top;resizable=0;rotatable=0;part=1;" vertex="1" parent="O_ht2-A330m9u8vxiIqC-42">
          <mxGeometry y="30" width="160" height="90" as="geometry" />
        </mxCell>
        <mxCell id="O_ht2-A330m9u8vxiIqC-77" style="edgeStyle=orthogonalEdgeStyle;rounded=0;orthogonalLoop=1;jettySize=auto;html=1;entryX=0.5;entryY=1;entryDx=0;entryDy=0;" edge="1" parent="1" source="O_ht2-A330m9u8vxiIqC-44" target="O_ht2-A330m9u8vxiIqC-43">
          <mxGeometry relative="1" as="geometry" />
        </mxCell>
        <mxCell id="O_ht2-A330m9u8vxiIqC-44" value="BANDA" style="swimlane;childLayout=stackLayout;horizontal=1;startSize=30;horizontalStack=0;rounded=1;fontSize=14;fontStyle=0;strokeWidth=2;resizeParent=0;resizeLast=1;shadow=0;dashed=0;align=center;" vertex="1" parent="1">
          <mxGeometry x="-255" y="-142" width="106" height="120" as="geometry" />
        </mxCell>
        <mxCell id="O_ht2-A330m9u8vxiIqC-45" value="+GENERO&#xa;+" style="align=left;strokeColor=none;fillColor=none;spacingLeft=4;fontSize=12;verticalAlign=top;resizable=0;rotatable=0;part=1;" vertex="1" parent="O_ht2-A330m9u8vxiIqC-44">
          <mxGeometry y="30" width="106" height="90" as="geometry" />
        </mxCell>
        <mxCell id="O_ht2-A330m9u8vxiIqC-60" value="ES PLATO PRINCIPAL" style="shape=rhombus;perimeter=rhombusPerimeter;whiteSpace=wrap;html=1;align=center;" vertex="1" parent="1">
          <mxGeometry x="-946" y="-495" width="120" height="60" as="geometry" />
        </mxCell>
        <mxCell id="O_ht2-A330m9u8vxiIqC-61" value="ES POSTRE" style="shape=rhombus;perimeter=rhombusPerimeter;whiteSpace=wrap;html=1;align=center;" vertex="1" parent="1">
          <mxGeometry x="-782" y="-501" width="120" height="60" as="geometry" />
        </mxCell>
        <mxCell id="O_ht2-A330m9u8vxiIqC-62" value="ES ENTRADA" style="shape=rhombus;perimeter=rhombusPerimeter;whiteSpace=wrap;html=1;align=center;" vertex="1" parent="1">
          <mxGeometry x="-1088" y="-502" width="120" height="60" as="geometry" />
        </mxCell>
        <mxCell id="O_ht2-A330m9u8vxiIqC-70" value="N" style="text;html=1;align=center;verticalAlign=middle;resizable=0;points=[];autosize=1;strokeColor=none;fillColor=none;" vertex="1" parent="1">
          <mxGeometry x="-792" y="-327" width="30" height="30" as="geometry" />
        </mxCell>
        <mxCell id="O_ht2-A330m9u8vxiIqC-71" value="1" style="text;html=1;align=center;verticalAlign=middle;resizable=0;points=[];autosize=1;strokeColor=none;fillColor=none;" vertex="1" parent="1">
          <mxGeometry x="-682" y="-532" width="30" height="30" as="geometry" />
        </mxCell>
        <mxCell id="O_ht2-A330m9u8vxiIqC-72" value="N" style="text;html=1;align=center;verticalAlign=middle;resizable=0;points=[];autosize=1;strokeColor=none;fillColor=none;" vertex="1" parent="1">
          <mxGeometry x="-876" y="-402" width="30" height="30" as="geometry" />
        </mxCell>
        <mxCell id="O_ht2-A330m9u8vxiIqC-73" value="N" style="text;html=1;align=center;verticalAlign=middle;resizable=0;points=[];autosize=1;strokeColor=none;fillColor=none;" vertex="1" parent="1">
          <mxGeometry x="-997" y="-332" width="30" height="30" as="geometry" />
        </mxCell>
        <mxCell id="O_ht2-A330m9u8vxiIqC-74" value="1" style="text;html=1;align=center;verticalAlign=middle;resizable=0;points=[];autosize=1;strokeColor=none;fillColor=none;" vertex="1" parent="1">
          <mxGeometry x="-882" y="-532" width="30" height="30" as="geometry" />
        </mxCell>
        <mxCell id="O_ht2-A330m9u8vxiIqC-75" value="1" style="text;html=1;align=center;verticalAlign=middle;resizable=0;points=[];autosize=1;strokeColor=none;fillColor=none;" vertex="1" parent="1">
          <mxGeometry x="-1018" y="-533" width="30" height="30" as="geometry" />
        </mxCell>
        <mxCell id="O_ht2-A330m9u8vxiIqC-78" value="PIDE" style="shape=rhombus;perimeter=rhombusPerimeter;whiteSpace=wrap;html=1;align=center;" vertex="1" parent="1">
          <mxGeometry x="-483" y="-395" width="120" height="60" as="geometry" />
        </mxCell>
        <mxCell id="O_ht2-A330m9u8vxiIqC-83" style="edgeStyle=orthogonalEdgeStyle;rounded=0;orthogonalLoop=1;jettySize=auto;html=1;entryX=0.5;entryY=1;entryDx=0;entryDy=0;exitX=0.5;exitY=0;exitDx=0;exitDy=0;" edge="1" parent="1" source="O_ht2-A330m9u8vxiIqC-18" target="O_ht2-A330m9u8vxiIqC-43">
          <mxGeometry relative="1" as="geometry">
            <mxPoint x="89" y="-39" as="sourcePoint" />
            <Array as="points">
              <mxPoint x="-62" y="-168" />
              <mxPoint x="-105" y="-168" />
            </Array>
          </mxGeometry>
        </mxCell>
        <mxCell id="O_ht2-A330m9u8vxiIqC-84" value="OFRECE" style="shape=rhombus;perimeter=rhombusPerimeter;whiteSpace=wrap;html=1;align=center;" vertex="1" parent="1">
          <mxGeometry x="-164" y="-416" width="120" height="60" as="geometry" />
        </mxCell>
        <mxCell id="O_ht2-A330m9u8vxiIqC-99" value="" style="endArrow=none;html=1;rounded=0;dashed=1;dashPattern=1 2;exitX=0.5;exitY=0;exitDx=0;exitDy=0;entryX=0;entryY=0.5;entryDx=0;entryDy=0;" edge="1" parent="1" source="O_ht2-A330m9u8vxiIqC-30" target="O_ht2-A330m9u8vxiIqC-78">
          <mxGeometry relative="1" as="geometry">
            <mxPoint x="-704" y="-289.5" as="sourcePoint" />
            <mxPoint x="-395" y="-286.71000000000004" as="targetPoint" />
            <Array as="points">
              <mxPoint x="-658" y="-224" />
              <mxPoint x="-479" y="-230" />
            </Array>
          </mxGeometry>
        </mxCell>
        <mxCell id="O_ht2-A330m9u8vxiIqC-100" value="1" style="resizable=0;html=1;align=right;verticalAlign=bottom;" connectable="0" vertex="1" parent="O_ht2-A330m9u8vxiIqC-99">
          <mxGeometry x="1" relative="1" as="geometry" />
        </mxCell>
        <mxCell id="O_ht2-A330m9u8vxiIqC-101" value="SE SIENTA" style="shape=rhombus;perimeter=rhombusPerimeter;whiteSpace=wrap;html=1;align=center;" vertex="1" parent="1">
          <mxGeometry x="-581" y="-663" width="120" height="60" as="geometry" />
        </mxCell>
        <mxCell id="O_ht2-A330m9u8vxiIqC-104" value="1" style="text;html=1;align=center;verticalAlign=middle;resizable=0;points=[];autosize=1;strokeColor=none;fillColor=none;" vertex="1" parent="1">
          <mxGeometry x="-526" y="-709" width="30" height="30" as="geometry" />
        </mxCell>
        <mxCell id="O_ht2-A330m9u8vxiIqC-105" value="N" style="text;html=1;align=center;verticalAlign=middle;resizable=0;points=[];autosize=1;strokeColor=none;fillColor=none;" vertex="1" parent="1">
          <mxGeometry x="-465" y="-522" width="30" height="30" as="geometry" />
        </mxCell>
        <mxCell id="O_ht2-A330m9u8vxiIqC-107" value="PIDE" style="shape=rhombus;perimeter=rhombusPerimeter;whiteSpace=wrap;html=1;align=center;" vertex="1" parent="1">
          <mxGeometry x="-702" y="-305" width="120" height="60" as="geometry" />
        </mxCell>
        <mxCell id="O_ht2-A330m9u8vxiIqC-110" value="1" style="text;html=1;align=center;verticalAlign=middle;resizable=0;points=[];autosize=1;strokeColor=none;fillColor=none;" vertex="1" parent="1">
          <mxGeometry x="-480" y="-452" width="30" height="30" as="geometry" />
        </mxCell>
        <mxCell id="O_ht2-A330m9u8vxiIqC-111" value="N" style="text;html=1;align=center;verticalAlign=middle;resizable=0;points=[];autosize=1;strokeColor=none;fillColor=none;" vertex="1" parent="1">
          <mxGeometry x="-782" y="-277" width="30" height="30" as="geometry" />
        </mxCell>
        <mxCell id="aeoVQca7qzeeKz3D4RCV-2" value="" style="endArrow=classic;html=1;rounded=0;exitX=0.5;exitY=0;exitDx=0;exitDy=0;entryX=0.5;entryY=1;entryDx=0;entryDy=0;" edge="1" parent="1" source="O_ht2-A330m9u8vxiIqC-36" target="O_ht2-A330m9u8vxiIqC-29">
          <mxGeometry width="50" height="50" relative="1" as="geometry">
            <mxPoint x="-488" y="-593" as="sourcePoint" />
            <mxPoint x="-438" y="-643" as="targetPoint" />
            <Array as="points">
              <mxPoint x="-722" y="-680" />
              <mxPoint x="-861" y="-680" />
            </Array>
          </mxGeometry>
        </mxCell>
        <mxCell id="8j1od133xrvw40YPgS5n-2" value="" style="endArrow=none;html=1;rounded=0;entryX=0.5;entryY=0;entryDx=0;entryDy=0;exitX=0.5;exitY=1;exitDx=0;exitDy=0;" edge="1" parent="1" source="O_ht2-A330m9u8vxiIqC-21" target="O_ht2-A330m9u8vxiIqC-101">
          <mxGeometry width="50" height="50" relative="1" as="geometry">
            <mxPoint x="-504" y="-577" as="sourcePoint" />
            <mxPoint x="-454" y="-627" as="targetPoint" />
          </mxGeometry>
        </mxCell>
        <mxCell id="8j1od133xrvw40YPgS5n-4" value="" style="endArrow=none;html=1;rounded=0;exitX=0.5;exitY=1;exitDx=0;exitDy=0;entryX=0;entryY=0.25;entryDx=0;entryDy=0;" edge="1" parent="1" source="O_ht2-A330m9u8vxiIqC-101" target="O_ht2-A330m9u8vxiIqC-12">
          <mxGeometry width="50" height="50" relative="1" as="geometry">
            <mxPoint x="-504" y="-577" as="sourcePoint" />
            <mxPoint x="-454" y="-627" as="targetPoint" />
            <Array as="points">
              <mxPoint x="-521" y="-524" />
            </Array>
          </mxGeometry>
        </mxCell>
        <mxCell id="8j1od133xrvw40YPgS5n-5" value="" style="endArrow=none;html=1;rounded=0;exitX=1;exitY=0.5;exitDx=0;exitDy=0;entryX=0;entryY=0.5;entryDx=0;entryDy=0;" edge="1" parent="1" source="O_ht2-A330m9u8vxiIqC-107" target="O_ht2-A330m9u8vxiIqC-12">
          <mxGeometry width="50" height="50" relative="1" as="geometry">
            <mxPoint x="-504" y="-310" as="sourcePoint" />
            <mxPoint x="-454" y="-360" as="targetPoint" />
            <Array as="points">
              <mxPoint x="-582" y="-490" />
            </Array>
          </mxGeometry>
        </mxCell>
        <mxCell id="8j1od133xrvw40YPgS5n-6" value="" style="endArrow=none;html=1;rounded=0;exitX=0;exitY=0.5;exitDx=0;exitDy=0;entryX=1;entryY=0.75;entryDx=0;entryDy=0;" edge="1" parent="1" source="O_ht2-A330m9u8vxiIqC-107" target="O_ht2-A330m9u8vxiIqC-40">
          <mxGeometry width="50" height="50" relative="1" as="geometry">
            <mxPoint x="-504" y="-310" as="sourcePoint" />
            <mxPoint x="-454" y="-360" as="targetPoint" />
          </mxGeometry>
        </mxCell>
        <mxCell id="8j1od133xrvw40YPgS5n-7" value="" style="endArrow=none;html=1;rounded=0;entryX=0.5;entryY=1;entryDx=0;entryDy=0;exitX=0.5;exitY=0;exitDx=0;exitDy=0;" edge="1" parent="1" source="O_ht2-A330m9u8vxiIqC-61" target="O_ht2-A330m9u8vxiIqC-37">
          <mxGeometry width="50" height="50" relative="1" as="geometry">
            <mxPoint x="-675" y="-444" as="sourcePoint" />
            <mxPoint x="-625" y="-494" as="targetPoint" />
          </mxGeometry>
        </mxCell>
        <mxCell id="8j1od133xrvw40YPgS5n-8" value="" style="endArrow=none;html=1;rounded=0;entryX=0.5;entryY=1;entryDx=0;entryDy=0;exitX=0.5;exitY=0;exitDx=0;exitDy=0;" edge="1" parent="1" source="O_ht2-A330m9u8vxiIqC-60" target="O_ht2-A330m9u8vxiIqC-35">
          <mxGeometry width="50" height="50" relative="1" as="geometry">
            <mxPoint x="-712" y="-491" as="sourcePoint" />
            <mxPoint x="-712" y="-525" as="targetPoint" />
          </mxGeometry>
        </mxCell>
        <mxCell id="8j1od133xrvw40YPgS5n-9" value="" style="endArrow=none;html=1;rounded=0;entryX=0.5;entryY=1;entryDx=0;entryDy=0;exitX=0.5;exitY=0;exitDx=0;exitDy=0;" edge="1" parent="1" source="O_ht2-A330m9u8vxiIqC-62" target="O_ht2-A330m9u8vxiIqC-33">
          <mxGeometry width="50" height="50" relative="1" as="geometry">
            <mxPoint x="-876" y="-485" as="sourcePoint" />
            <mxPoint x="-875" y="-523" as="targetPoint" />
          </mxGeometry>
        </mxCell>
        <mxCell id="8j1od133xrvw40YPgS5n-10" value="" style="endArrow=none;html=1;rounded=0;entryX=0.5;entryY=1;entryDx=0;entryDy=0;exitX=0.5;exitY=0;exitDx=0;exitDy=0;" edge="1" parent="1" source="O_ht2-A330m9u8vxiIqC-39" target="O_ht2-A330m9u8vxiIqC-60">
          <mxGeometry width="50" height="50" relative="1" as="geometry">
            <mxPoint x="-866" y="-475" as="sourcePoint" />
            <mxPoint x="-865" y="-513" as="targetPoint" />
          </mxGeometry>
        </mxCell>
        <mxCell id="8j1od133xrvw40YPgS5n-11" value="" style="endArrow=none;html=1;rounded=0;entryX=0.5;entryY=1;entryDx=0;entryDy=0;exitX=1;exitY=0;exitDx=0;exitDy=0;" edge="1" parent="1" source="O_ht2-A330m9u8vxiIqC-40" target="O_ht2-A330m9u8vxiIqC-61">
          <mxGeometry width="50" height="50" relative="1" as="geometry">
            <mxPoint x="-856" y="-465" as="sourcePoint" />
            <mxPoint x="-855" y="-503" as="targetPoint" />
            <Array as="points">
              <mxPoint x="-722" y="-345" />
            </Array>
          </mxGeometry>
        </mxCell>
        <mxCell id="8j1od133xrvw40YPgS5n-12" value="" style="endArrow=none;html=1;rounded=0;entryX=0.5;entryY=1;entryDx=0;entryDy=0;exitX=0;exitY=0;exitDx=0;exitDy=0;" edge="1" parent="1" source="O_ht2-A330m9u8vxiIqC-40" target="O_ht2-A330m9u8vxiIqC-62">
          <mxGeometry width="50" height="50" relative="1" as="geometry">
            <mxPoint x="-846" y="-455" as="sourcePoint" />
            <mxPoint x="-845" y="-493" as="targetPoint" />
            <Array as="points">
              <mxPoint x="-1028" y="-343" />
            </Array>
          </mxGeometry>
        </mxCell>
        <mxCell id="8j1od133xrvw40YPgS5n-13" value="" style="endArrow=none;html=1;rounded=0;entryX=0.5;entryY=1;entryDx=0;entryDy=0;exitX=0;exitY=0.25;exitDx=0;exitDy=0;" edge="1" parent="1" source="O_ht2-A330m9u8vxiIqC-25" target="O_ht2-A330m9u8vxiIqC-78">
          <mxGeometry width="50" height="50" relative="1" as="geometry">
            <mxPoint x="-336" y="-310" as="sourcePoint" />
            <mxPoint x="-286" y="-360" as="targetPoint" />
            <Array as="points">
              <mxPoint x="-423" y="-299" />
            </Array>
          </mxGeometry>
        </mxCell>
        <mxCell id="8j1od133xrvw40YPgS5n-14" value="" style="endArrow=none;html=1;rounded=0;entryX=0.474;entryY=1.031;entryDx=0;entryDy=0;entryPerimeter=0;exitX=0.5;exitY=0;exitDx=0;exitDy=0;" edge="1" parent="1" source="O_ht2-A330m9u8vxiIqC-78" target="O_ht2-A330m9u8vxiIqC-12">
          <mxGeometry width="50" height="50" relative="1" as="geometry">
            <mxPoint x="-336" y="-310" as="sourcePoint" />
            <mxPoint x="-286" y="-360" as="targetPoint" />
            <Array as="points">
              <mxPoint x="-326" y="-397" />
            </Array>
          </mxGeometry>
        </mxCell>
        <mxCell id="8j1od133xrvw40YPgS5n-15" value="" style="endArrow=none;html=1;rounded=0;entryX=0.5;entryY=1;entryDx=0;entryDy=0;" edge="1" parent="1" source="O_ht2-A330m9u8vxiIqC-84" target="O_ht2-A330m9u8vxiIqC-16">
          <mxGeometry width="50" height="50" relative="1" as="geometry">
            <mxPoint x="-107" y="-419" as="sourcePoint" />
            <mxPoint x="-316" y="-413" as="targetPoint" />
          </mxGeometry>
        </mxCell>
        <mxCell id="8j1od133xrvw40YPgS5n-16" value="" style="endArrow=none;html=1;rounded=0;entryX=0.5;entryY=1;entryDx=0;entryDy=0;exitX=0.5;exitY=0;exitDx=0;exitDy=0;" edge="1" parent="1" source="O_ht2-A330m9u8vxiIqC-42" target="O_ht2-A330m9u8vxiIqC-84">
          <mxGeometry width="50" height="50" relative="1" as="geometry">
            <mxPoint x="-94" y="-406" as="sourcePoint" />
            <mxPoint x="-95" y="-457" as="targetPoint" />
          </mxGeometry>
        </mxCell>
        <mxCell id="8j1od133xrvw40YPgS5n-17" value="" style="endArrow=none;html=1;rounded=0;entryX=0.5;entryY=1;entryDx=0;entryDy=0;exitX=0.5;exitY=0;exitDx=0;exitDy=0;" edge="1" parent="1" source="O_ht2-A330m9u8vxiIqC-22" target="O_ht2-A330m9u8vxiIqC-25">
          <mxGeometry width="50" height="50" relative="1" as="geometry">
            <mxPoint x="-336" y="-177" as="sourcePoint" />
            <mxPoint x="-286" y="-227" as="targetPoint" />
            <Array as="points">
              <mxPoint x="-375" y="-206" />
              <mxPoint x="-271" y="-206" />
            </Array>
          </mxGeometry>
        </mxCell>
      </root>
    </mxGraphModel>
  </diagram>
</mxfile>
